<svg width="747" height="624" viewBox="0 0 747 624" fill="none" xmlns="http://www.w3.org/2000/svg">
<g clip-path="url(#clip0_19:318)">
<path d="M684.874 0V596.091L487.572 567.943L247.728 618.039L245.795 618.445L54.9617 564.631V46.3627L253.073 0L469.782 46.3627L478.022 44.5827L684.874 0Z" fill="#444053"/>
<path d="M651.721 32.5532V565.898L475.192 540.713L260.593 585.536L258.862 585.892L88.1149 537.749V74.0312L265.38 32.5532L459.27 74.0312L466.645 72.4417L651.721 32.5532Z" fill="white"/>
<path opacity="0.1" d="M487.572 567.943L247.728 618.039L253.073 0L469.782 46.3627L478.022 44.5827L487.572 567.943Z" fill="black"/>
<g opacity="0.3">
<path opacity="0.3" d="M463.62 114.251L463.717 287.697H534.067V216.497H654.551L668.702 197.919" stroke="#444053" stroke-width="3" stroke-miterlimit="10"/>
<path opacity="0.3" d="M71.9426 169.306H333.53L349.702 161.855H356.171V329.092H469.378L474.229 343.994V419.334H561.56V512.473" stroke="#444053" stroke-width="3" stroke-miterlimit="10"/>
<path opacity="0.3" d="M390.724 512.473V329.092" stroke="#444053" stroke-width="3" stroke-miterlimit="10"/>
<path opacity="0.3" d="M668.702 463.345H390.724" stroke="#444053" stroke-width="3" stroke-miterlimit="10"/>
<path opacity="0.3" d="M599.08 114.251V512.473" stroke="#444053" stroke-width="3" stroke-miterlimit="10"/>
<path opacity="0.3" d="M71.134 428.143H668.702" stroke="#444053" stroke-width="3" stroke-miterlimit="10"/>
<path opacity="0.3" d="M143.861 512.473V114.251" stroke="#444053" stroke-width="3" stroke-miterlimit="10"/>
<path opacity="0.3" d="M282.765 114.251V512.473" stroke="#444053" stroke-width="3" stroke-miterlimit="10"/>
<path opacity="0.3" d="M71.9426 214.841L534.067 216.497" stroke="#444053" stroke-width="3" stroke-miterlimit="10"/>
<path opacity="0.3" d="M206.44 114.971V512.473" stroke="#444053" stroke-width="3" stroke-miterlimit="10"/>
<path opacity="0.3" d="M71.134 307.004H282.765L390.724 428.143" stroke="#444053" stroke-width="3" stroke-miterlimit="10"/>
<path opacity="0.3" d="M414.109 114.251V329.092" stroke="#444053" stroke-width="3" stroke-miterlimit="10"/>
<path opacity="0.3" d="M390.724 367.573H668.702" stroke="#444053" stroke-width="3" stroke-miterlimit="10"/>
</g>
<path d="M574.67 390.842H493V354.414L570.223 354L575.075 368.074L574.67 390.842Z" fill="#1FA0E9"/>
<path opacity="0.1" d="M521.7 206C509.845 206 498.475 210.822 490.092 219.405C481.71 227.988 477 239.629 477 251.767C477 277.042 521.7 359.162 521.7 359.162C521.7 359.162 566.401 277.076 566.401 251.767C566.401 239.629 561.691 227.988 553.308 219.405C544.925 210.822 533.556 206 521.7 206ZM521.7 271.289C517.811 271.289 514.009 270.108 510.775 267.895C507.541 265.683 505.02 262.538 503.532 258.859C502.043 255.18 501.654 251.132 502.413 247.226C503.171 243.32 505.044 239.732 507.795 236.917C510.545 234.101 514.049 232.183 517.864 231.406C521.679 230.629 525.633 231.028 529.226 232.552C532.819 234.076 535.891 236.657 538.052 239.968C540.213 243.279 541.366 247.172 541.366 251.154C541.364 256.493 539.291 261.612 535.603 265.386C531.915 269.16 526.915 271.28 521.7 271.28V271.289Z" fill="black"/>
<path d="M529.7 206C517.845 206 506.475 210.822 498.092 219.405C489.71 227.988 485 239.629 485 251.767C485 277.043 529.7 359.162 529.7 359.162C529.7 359.162 574.401 277.076 574.401 251.767C574.401 239.629 569.691 227.988 561.308 219.405C552.925 210.822 541.556 206 529.7 206ZM529.7 271.289C525.811 271.289 522.009 270.108 518.775 267.895C515.541 265.683 513.02 262.538 511.532 258.859C510.043 255.18 509.654 251.132 510.413 247.226C511.171 243.32 513.044 239.732 515.795 236.917C518.545 234.101 522.049 232.183 525.864 231.406C529.679 230.629 533.633 231.028 537.226 232.552C540.819 234.076 543.891 236.657 546.052 239.968C548.213 243.279 549.366 247.172 549.366 251.154C549.364 256.493 547.291 261.612 543.603 265.386C539.915 269.16 534.915 271.28 529.7 271.28V271.289Z" fill="#1FA0E9"/>
<path d="M413.518 581.313C416.823 581.313 419.502 577.725 419.502 573.299C419.502 568.873 416.823 565.285 413.518 565.285C410.214 565.285 407.535 568.873 407.535 573.299C407.535 577.725 410.214 581.313 413.518 581.313Z" fill="#3F3D56"/>
<g clip-path="url(#clip1_19:318)">
<path d="M363.711 187.579C360.384 189.136 354.541 190.417 347.778 191.446C329.391 194.249 304.194 195.244 304.194 195.244C304.194 195.244 174.663 208.891 77.5816 158.135C77.5816 158.135 63.4609 148.731 76.5601 136.074C78.5772 134.183 80.7216 132.521 82.9684 131.108L83.1284 130.905C84.6184 129.156 86.2286 127.579 87.9398 126.194C92.969 122.064 101.461 117.167 111.799 119.386L366.775 171.773C366.775 171.773 376.088 181.77 363.711 187.579Z" fill="#3F3D56"/>
<path d="M312.908 163.836L366.285 115.727L389.81 120.896L366.775 171.773C366.775 171.773 313.521 172.314 312.908 163.836Z" fill="#3F3D56"/>
<path d="M178.524 134.608L284.847 96.7285L301.984 101.279L253.956 128.725L238.947 150.059L178.524 134.608Z" fill="#3F3D56"/>
<path d="M347.778 191.446C329.391 194.249 304.194 195.244 304.194 195.244C304.194 195.244 174.663 208.891 77.5816 158.135C77.5816 158.135 63.4609 148.731 76.5601 136.074L76.6044 136.308C76.6044 136.308 97.5522 154.294 197.64 169.308L347.778 191.446Z" fill="#1FA0E9"/>
<path d="M330.689 190.408L378.223 215.064L390.165 213.381L361.732 186.234C361.732 186.234 327.342 176.912 330.689 190.408Z" fill="#3F3D56"/>
<path d="M93.841 138.942C91.5733 138.99 86.3772 134.158 83.1458 130.905C84.6358 129.156 86.2459 127.579 87.9571 126.195C90.562 128.734 95.1962 132.843 97.7738 132.683C101.496 132.488 97.2563 138.864 93.841 138.942Z" fill="#1FA0E9"/>
<path d="M309.792 275.635L279.273 277.664L193.466 204.163L177.537 190.516L169.801 183.885C184.316 168.313 243.54 189.789 243.54 189.789C244.674 191.005 245.035 193.025 244.984 195.257C244.885 199.435 243.339 204.341 242.743 206.106C242.6 206.538 242.512 206.767 242.512 206.767L309.792 275.635Z" fill="#3F3D56"/>
<path d="M209.282 237.527L203.987 241.783L207.195 234.373C206.287 233.453 205.163 232.943 204.001 232.924H203.916C203.549 232.933 203.181 232.899 202.819 232.82L201.028 234.265L201.794 232.492C200.526 231.926 199.429 230.866 198.662 229.464L195.458 232.059L197.48 227.379C195.607 224.52 193.081 222.768 190.299 222.768C186.965 222.768 183.996 225.285 182.079 229.213C181.511 230.389 180.707 231.353 179.75 232.006C178.793 232.66 177.717 232.979 176.631 232.933H176.454C172.773 232.933 169.79 238.232 169.79 244.772C169.79 251.312 172.773 256.611 176.454 256.611C177.263 256.608 178.059 256.354 178.773 255.871C180.026 255.099 181.396 254.681 182.789 254.647C184.182 254.613 185.564 254.963 186.839 255.672C187.918 256.284 189.087 256.6 190.268 256.6C191.45 256.6 192.618 256.284 193.697 255.672C194.963 254.976 196.331 254.633 197.71 254.666C199.088 254.7 200.445 255.109 201.689 255.867C202.399 256.338 203.187 256.585 203.987 256.59C207.668 256.59 210.651 251.291 210.651 244.75C210.677 242.235 210.207 239.751 209.282 237.527Z" fill="#F2F2F2"/>
<path opacity="0.03" d="M199.322 254.851C197.4 254.388 195.412 254.662 193.612 255.638C192.534 256.251 191.366 256.568 190.185 256.568C189.004 256.568 187.836 256.251 186.758 255.638C185.482 254.926 184.1 254.575 182.707 254.609C181.314 254.644 179.944 255.063 178.691 255.837C177.975 256.318 177.179 256.572 176.369 256.577C173.1 256.577 170.38 252.389 169.814 246.87C170.468 246.266 171.023 245.507 171.449 244.634C173.366 240.71 176.335 238.193 179.668 238.193C183.002 238.193 185.941 240.658 187.854 244.551C188.425 245.725 189.225 246.691 190.177 247.355C191.129 248.02 192.199 248.361 193.285 248.345H193.37C195.972 248.336 198.226 250.984 199.322 254.851Z" fill="black"/>
<path d="M358.763 231.903L353.468 236.16L356.676 228.75C355.768 227.829 354.644 227.32 353.482 227.301H353.397C353.03 227.31 352.663 227.275 352.301 227.197L350.51 228.642L351.276 226.868C350.007 226.303 348.911 225.243 348.143 223.84L344.939 226.436L346.961 221.755C345.089 218.896 342.562 217.144 339.78 217.144C336.447 217.144 333.477 219.662 331.56 223.59C330.992 224.766 330.188 225.73 329.231 226.383C328.274 227.036 327.198 227.356 326.112 227.31H325.935C322.254 227.31 319.272 232.608 319.272 239.149C319.272 245.689 322.254 250.988 325.935 250.988C326.744 250.985 327.54 250.731 328.254 250.248C329.507 249.476 330.878 249.058 332.27 249.024C333.663 248.989 335.045 249.339 336.321 250.049C337.4 250.661 338.568 250.977 339.75 250.977C340.931 250.977 342.099 250.661 343.178 250.049C344.444 249.353 345.812 249.009 347.191 249.043C348.57 249.077 349.927 249.486 351.17 250.244C351.88 250.714 352.668 250.962 353.468 250.966C357.149 250.966 360.132 245.667 360.132 239.127C360.159 236.612 359.688 234.128 358.763 231.903Z" fill="#F2F2F2"/>
<path opacity="0.03" d="M348.804 249.227C346.881 248.765 344.893 249.039 343.093 250.015C342.015 250.628 340.847 250.945 339.666 250.945C338.485 250.945 337.317 250.628 336.239 250.015C334.964 249.303 333.581 248.952 332.188 248.986C330.796 249.02 329.425 249.439 328.172 250.214C327.457 250.695 326.66 250.948 325.85 250.953C322.581 250.953 319.861 246.766 319.296 241.247C319.95 240.643 320.505 239.884 320.93 239.01C322.847 235.087 325.816 232.57 329.15 232.57C332.483 232.57 335.422 235.035 337.335 238.928C337.908 240.105 338.711 241.073 339.666 241.737C340.621 242.402 341.695 242.741 342.783 242.722H342.869C345.453 242.713 347.707 245.36 348.804 249.227Z" fill="black"/>
<path d="M358.763 90.0239L353.468 94.2803L356.676 86.8705C355.768 85.9499 354.644 85.4401 353.482 85.4214H353.397C353.03 85.4306 352.663 85.3958 352.301 85.3176L350.509 86.7624L351.276 84.9889C350.007 84.4231 348.911 83.3636 348.143 81.961L344.939 84.5563L346.961 79.876C345.089 77.0168 342.562 75.265 339.78 75.265C336.447 75.265 333.477 77.7825 331.56 81.7101C330.992 82.8863 330.188 83.8501 329.231 84.5035C328.274 85.157 327.198 85.4767 326.112 85.4301H325.935C322.254 85.4301 319.272 90.729 319.272 97.2693C319.272 103.81 322.254 109.108 325.935 109.108C326.744 109.105 327.54 108.851 328.254 108.369C329.507 107.596 330.878 107.179 332.27 107.144C333.663 107.11 335.045 107.46 336.321 108.17C337.398 108.785 338.566 109.105 339.748 109.108C340.929 109.112 342.098 108.8 343.178 108.191C344.444 107.495 345.812 107.152 347.191 107.185C348.57 107.219 349.927 107.628 351.17 108.386C351.88 108.857 352.668 109.104 353.468 109.108C357.149 109.108 360.132 103.81 360.132 97.2693C360.161 94.7465 359.691 92.2549 358.763 90.0239Z" fill="#F2F2F2"/>
<path opacity="0.03" d="M348.804 107.348C346.881 106.886 344.893 107.16 343.093 108.135C342.015 108.748 340.847 109.065 339.666 109.065C338.485 109.065 337.317 108.748 336.239 108.135C334.964 107.423 333.581 107.072 332.188 107.107C330.796 107.141 329.425 107.56 328.172 108.334C327.457 108.815 326.66 109.069 325.85 109.074C322.581 109.074 319.861 104.887 319.296 99.3672C319.95 98.7638 320.505 98.0042 320.93 97.1309C322.847 93.2076 325.816 90.6901 329.15 90.6901C332.483 90.6901 335.422 93.1557 337.335 97.0487C337.908 98.2252 338.711 99.1932 339.666 99.858C340.621 100.523 341.695 100.862 342.783 100.842H342.869C345.453 100.834 347.707 103.481 348.804 107.348Z" fill="black"/>
<path d="M140.153 74.7156L137.514 76.8395L139.114 73.1454C138.662 72.6836 138.101 72.4278 137.521 72.4187H137.48C137.296 72.4211 137.113 72.4037 136.932 72.3668L136.04 73.0848L136.421 72.2197C135.788 71.938 135.241 71.4097 134.858 70.7101L133.261 72.0078L134.283 69.6763C133.858 68.9784 133.316 68.4097 132.696 68.0116C132.077 67.6135 131.395 67.396 130.701 67.3751C129.039 67.3751 127.558 68.6295 126.615 70.589C126.331 71.1772 125.929 71.659 125.45 71.9851C124.972 72.3111 124.433 72.4697 123.89 72.4447H123.802C121.967 72.4447 120.479 75.0919 120.479 78.3534C120.479 81.6149 121.967 84.2579 123.802 84.2579C124.206 84.2562 124.603 84.13 124.96 83.8902C125.585 83.5037 126.268 83.2946 126.963 83.2774C127.658 83.2602 128.348 83.4354 128.984 83.7907C129.52 84.0933 130.1 84.2497 130.687 84.2497C131.273 84.2497 131.853 84.0933 132.389 83.7907C133.021 83.4428 133.704 83.2716 134.392 83.2888C135.08 83.3059 135.757 83.511 136.377 83.8902C136.731 84.1227 137.123 84.2458 137.521 84.2492C139.356 84.2492 140.844 81.6063 140.844 78.3448C140.857 77.0805 140.619 75.8325 140.153 74.7156Z" fill="#F2F2F2"/>
<path opacity="0.03" d="M135.185 83.3582C134.225 83.1247 133.233 83.2618 132.335 83.7518C131.799 84.0527 131.219 84.2088 130.632 84.2103C130.039 84.2101 129.453 84.0494 128.913 83.7388C128.276 83.385 127.586 83.211 126.892 83.229C126.197 83.2469 125.513 83.4563 124.888 83.8426C124.533 84.0824 124.136 84.2086 123.734 84.2103C122.103 84.2103 120.744 82.121 120.462 79.37C120.787 79.0667 121.064 78.6881 121.279 78.254C122.232 76.2945 123.713 75.04 125.365 75.04C127.016 75.04 128.491 76.2815 129.451 78.215C129.737 78.803 130.139 79.2864 130.616 79.6178C131.094 79.9491 131.631 80.1171 132.175 80.1053H132.219C133.503 80.1053 134.637 81.429 135.185 83.3582Z" fill="black"/>
<path d="M375.101 286.237L372.462 288.361L374.062 284.667C373.61 284.205 373.049 283.949 372.469 283.94H372.428C372.244 283.943 372.061 283.925 371.88 283.888L370.987 284.606L371.369 283.741C370.736 283.46 370.189 282.931 369.806 282.232L368.209 283.529L369.23 281.198C368.806 280.5 368.264 279.931 367.644 279.533C367.024 279.135 366.343 278.918 365.648 278.897C363.987 278.897 362.505 280.151 361.562 282.111C361.278 282.699 360.877 283.181 360.398 283.507C359.919 283.833 359.381 283.991 358.838 283.966H358.75C356.914 283.966 355.426 286.613 355.426 289.875C355.426 293.136 356.914 295.779 358.75 295.779C359.153 295.778 359.551 295.652 359.907 295.412C360.532 295.025 361.216 294.816 361.911 294.799C362.606 294.782 363.296 294.957 363.932 295.312C364.468 295.615 365.048 295.771 365.635 295.771C366.221 295.771 366.801 295.615 367.337 295.312C367.969 294.964 368.651 294.793 369.339 294.81C370.027 294.827 370.704 295.033 371.325 295.412C371.678 295.644 372.07 295.767 372.469 295.771C374.304 295.771 375.792 293.128 375.792 289.866C375.805 288.602 375.567 287.354 375.101 286.237Z" fill="#F2F2F2"/>
<path opacity="0.03" d="M370.133 294.88C369.173 294.646 368.18 294.783 367.283 295.273C366.746 295.574 366.167 295.73 365.58 295.732C364.987 295.732 364.401 295.571 363.861 295.26C363.224 294.907 362.534 294.733 361.839 294.751C361.144 294.768 360.461 294.978 359.836 295.364C359.48 295.604 359.084 295.73 358.682 295.732C357.051 295.732 355.692 293.643 355.409 290.892C355.735 290.588 356.012 290.21 356.227 289.775C357.18 287.816 358.661 286.562 360.313 286.562C361.964 286.562 363.438 287.803 364.399 289.737C364.685 290.325 365.086 290.808 365.564 291.139C366.041 291.471 366.579 291.639 367.123 291.627H367.167C368.451 291.627 369.585 292.95 370.133 294.88Z" fill="black"/>
<path d="M129.938 297.484L127.299 299.608L128.899 295.914C128.447 295.452 127.886 295.196 127.306 295.187H127.265C127.081 295.189 126.898 295.172 126.717 295.135L125.825 295.853L126.206 294.988C125.573 294.706 125.026 294.178 124.643 293.478L123.046 294.776L124.068 292.444C123.643 291.747 123.101 291.178 122.481 290.78C121.861 290.382 121.18 290.164 120.485 290.143C118.824 290.143 117.343 291.398 116.399 293.357C116.115 293.945 115.714 294.427 115.235 294.753C114.756 295.079 114.218 295.238 113.675 295.213H113.587C111.751 295.213 110.263 297.86 110.263 301.122C110.263 304.383 111.751 307.026 113.587 307.026C113.99 307.024 114.388 306.898 114.745 306.658C115.37 306.272 116.053 306.063 116.748 306.045C117.443 306.028 118.133 306.203 118.769 306.559C119.305 306.861 119.885 307.018 120.472 307.018C121.058 307.018 121.638 306.861 122.174 306.559C122.806 306.211 123.488 306.04 124.176 306.057C124.865 306.074 125.542 306.279 126.162 306.658C126.515 306.891 126.907 307.014 127.306 307.017C129.141 307.017 130.629 304.374 130.629 301.113C130.642 299.849 130.404 298.601 129.938 297.484Z" fill="#F2F2F2"/>
<path opacity="0.03" d="M124.97 306.126C124.01 305.893 123.018 306.03 122.12 306.52C121.583 306.821 121.004 306.977 120.417 306.978C119.824 306.978 119.238 306.817 118.698 306.507C118.061 306.153 117.371 305.979 116.676 305.997C115.982 306.015 115.298 306.224 114.673 306.611C114.317 306.85 113.921 306.977 113.519 306.978C111.888 306.978 110.529 304.889 110.246 302.138C110.572 301.835 110.849 301.456 111.064 301.022C112.017 299.063 113.498 297.808 115.15 297.808C116.801 297.808 118.276 299.05 119.236 300.983C119.522 301.571 119.923 302.054 120.401 302.386C120.879 302.717 121.416 302.885 121.96 302.873H122.004C123.288 302.873 124.422 304.197 124.97 306.126Z" fill="black"/>
<path d="M251.845 30.7632L246.55 35.0196L249.758 27.6098C248.849 26.6893 247.726 26.1794 246.564 26.1608H246.479C246.111 26.1699 245.744 26.1351 245.382 26.057L243.591 27.5017L244.357 25.7282C243.089 25.1624 241.992 24.1029 241.225 22.7003L238.021 25.2956L240.043 20.6154C238.17 17.7561 235.644 16.0043 232.862 16.0043C229.528 16.0043 226.559 18.5218 224.642 22.4494C224.074 23.6256 223.27 24.5894 222.313 25.2429C221.356 25.8963 220.28 26.216 219.194 26.1694H219.017C215.336 26.1694 212.353 31.4683 212.353 38.0086C212.353 44.5489 215.336 49.8477 219.017 49.8477C219.826 49.8445 220.622 49.5905 221.336 49.108C222.589 48.3357 223.959 47.9179 225.352 47.8836C226.745 47.8492 228.127 48.1991 229.402 48.9091C230.48 49.5242 231.648 49.844 232.829 49.8477C234.011 49.8514 235.18 49.539 236.26 48.9307C237.525 48.234 238.894 47.8909 240.273 47.9245C241.651 47.958 243.008 48.3676 244.252 49.1253C244.962 49.5959 245.75 49.8436 246.55 49.8477C250.231 49.8477 253.214 44.5489 253.214 38.0086C253.243 35.4858 252.772 32.9942 251.845 30.7632Z" fill="#F2F2F2"/>
<path opacity="0.03" d="M241.885 48.0872C239.963 47.625 237.975 47.899 236.175 48.8744C235.097 49.4876 233.929 49.8046 232.748 49.8046C231.567 49.8046 230.399 49.4876 229.321 48.8744C228.045 48.1625 226.663 47.8115 225.27 47.8459C223.877 47.8803 222.507 48.2991 221.254 49.0734C220.538 49.5545 219.742 49.8083 218.932 49.8131C215.663 49.8131 212.942 45.6259 212.377 40.1065C213.031 39.5031 213.586 38.7435 214.012 37.8701C215.929 33.9468 218.898 31.4293 222.231 31.4293C225.565 31.4293 228.504 33.8949 230.417 37.7879C230.99 38.9645 231.793 39.9324 232.747 40.5973C233.702 41.2622 234.776 41.6012 235.865 41.5815H235.95C238.535 41.5728 240.789 44.2201 241.885 48.0872Z" fill="black"/>
<path d="M432.305 104.995L429.666 107.119L431.267 103.425C430.815 102.963 430.253 102.707 429.673 102.698H429.632C429.449 102.7 429.265 102.683 429.084 102.646L428.192 103.364L428.573 102.499C427.94 102.217 427.393 101.689 427.01 100.989L425.414 102.287L426.435 99.9555C426.01 99.2576 425.468 98.6889 424.849 98.2908C424.229 97.8927 423.547 97.6752 422.853 97.6542C421.191 97.6542 419.71 98.9087 418.767 100.868C418.483 101.456 418.081 101.938 417.603 102.264C417.124 102.59 416.586 102.749 416.043 102.724H415.954C414.119 102.724 412.631 105.371 412.631 108.633C412.631 111.894 414.119 114.537 415.954 114.537C416.358 114.535 416.755 114.409 417.112 114.169C417.737 113.783 418.421 113.574 419.116 113.557C419.811 113.539 420.5 113.715 421.137 114.07C421.673 114.373 422.253 114.529 422.839 114.529C423.426 114.529 424.006 114.373 424.542 114.07C425.173 113.722 425.856 113.551 426.544 113.568C427.232 113.585 427.909 113.79 428.529 114.169C428.883 114.402 429.275 114.525 429.673 114.528C431.509 114.528 432.997 111.885 432.997 108.624C433.009 107.36 432.772 106.112 432.305 104.995Z" fill="#F2F2F2"/>
<path opacity="0.03" d="M427.337 113.637C426.378 113.404 425.385 113.541 424.487 114.031C423.951 114.332 423.371 114.488 422.785 114.489C422.198 114.486 421.617 114.326 421.082 114.018C420.445 113.664 419.756 113.49 419.061 113.508C418.366 113.526 417.683 113.735 417.058 114.122C416.702 114.362 416.306 114.488 415.903 114.489C414.272 114.489 412.914 112.4 412.631 109.649C412.956 109.346 413.234 108.967 413.448 108.533C414.402 106.574 415.883 105.319 417.534 105.319C419.186 105.319 420.66 106.561 421.62 108.494C421.905 109.079 422.304 109.56 422.778 109.892C423.252 110.223 423.786 110.393 424.327 110.384H424.372C425.655 110.384 426.789 111.708 427.337 113.637Z" fill="black"/>
</g>
<g clip-path="url(#clip2_19:318)">
<path d="M168.805 472.088C169.875 472.503 171.016 472.355 172.013 471.674C173.009 470.992 173.793 469.824 174.214 468.39C174.635 466.957 174.664 465.357 174.297 463.895C173.93 462.433 173.191 461.209 172.221 460.457L162.598 445.215L154.459 447.67L165.907 463.324C165.625 464.156 165.478 465.065 165.475 465.985C165.472 466.905 165.614 467.815 165.89 468.651C166.167 469.486 166.571 470.227 167.075 470.821C167.578 471.415 168.169 471.847 168.805 472.088L168.805 472.088Z" fill="#A0616A"/>
<path d="M137.146 417.52L161.13 459.553L168.441 454.866L140.25 393.591L137.146 417.52Z" fill="#3F3D56"/>
<path d="M246.182 562.79C247.685 558.719 246.868 553.583 244.997 549.82C243.126 546.057 240.364 543.376 237.661 540.779L233.904 537.167L235.699 549.743C236.305 553.995 237.051 558.586 239.43 561.374C240.364 562.443 241.479 563.158 242.668 563.45C243.858 563.743 245.081 563.603 246.22 563.044" fill="#E6E6E6"/>
<path d="M207.657 554.384C219.494 564.554 215.548 578.115 215.548 578.115L207.657 554.384Z" fill="#E6E6E6"/>
<path d="M230.921 568.286C221.605 568.203 220.401 577.868 220.401 577.868L230.921 568.286Z" fill="#E6E6E6"/>
<path d="M80.6218 578.917C82.0747 578.917 83.2524 577.272 83.2524 575.244C83.2524 573.215 82.0747 571.571 80.6218 571.571C79.169 571.571 77.9912 573.215 77.9912 575.244C77.9912 577.272 79.169 578.917 80.6218 578.917Z" fill="#3F3D56"/>
<path d="M82.535 501.288C82.535 501.288 88.7528 474.911 89.2311 473.075C89.7093 471.238 94.7314 474.243 96.0467 474.744C97.362 475.245 97.0033 477.081 97.0033 477.081L90.3072 504.126L92.3399 505.462L98.5577 478.25C102.145 473.075 99.5143 472.741 99.5143 472.741C99.5143 472.741 91.8617 469.068 88.9919 468.734C86.1222 468.4 87.1983 473.242 87.1983 473.242L80.2632 498.951L82.535 501.288Z" fill="#3F3D56"/>
<path d="M97.4815 507.632L97.4803 507.63C96.598 505.864 95.3452 504.523 93.8943 503.792C93.8429 503.766 93.7831 503.736 93.715 503.702C90.4208 502.094 67.4689 493.442 67.4689 493.442C67.4689 493.442 62.9252 491.105 60.8924 497.449C58.8597 503.792 46.7829 556.379 46.7829 556.379C46.7829 556.379 70.4032 574.015 77.2893 575.935C77.7145 576.078 78.1531 576.126 78.5891 576.079C79.7596 575.852 80.9117 575.468 82.0292 574.932C83.2652 574.369 84.4409 573.576 85.5243 572.573L98.9164 516.647C98.9164 516.647 100.83 510.47 97.4815 507.632Z" fill="#1FA0E9"/>
<path d="M97.4815 507.632L97.4803 507.63C96.5981 505.864 95.3452 504.523 93.8943 503.792C93.8429 503.766 93.7831 503.736 93.715 503.702C94.7983 506.353 95.2097 510.47 95.2097 510.47C95.2097 510.47 82.0567 565.06 80.861 570.236C79.9498 574.18 78.112 575.521 77.2894 575.935C77.7145 576.078 78.1532 576.126 78.5891 576.079C79.7596 575.852 80.9117 575.468 82.0292 574.932C82.356 574.408 82.6456 573.842 82.8937 573.24C82.8937 573.24 96.2858 517.315 97.4815 514.644C98.6773 511.972 97.4815 507.632 97.4815 507.632Z" fill="#3F3D56"/>
<path d="M72.5507 579C74.0035 579 75.1813 577.356 75.1813 575.327C75.1813 573.299 74.0035 571.654 72.5507 571.654C71.0979 571.654 69.9201 573.299 69.9201 575.327C69.9201 577.356 71.0979 579 72.5507 579Z" fill="#3F3D56"/>
<path d="M47.022 563.558C48.4749 563.558 49.6526 561.913 49.6526 559.885C49.6526 557.857 48.4749 556.212 47.022 556.212C45.5692 556.212 44.3914 557.857 44.3914 559.885C44.3914 561.913 45.5692 563.558 47.022 563.558Z" fill="#3F3D56"/>
<path d="M93.3902 475.311C92.3321 475.778 91.1879 475.688 90.1744 475.056C89.1609 474.425 88.3485 473.296 87.8911 471.884C87.4338 470.473 87.3633 468.876 87.693 467.396C88.0227 465.916 88.7297 464.657 89.6799 463.857L98.9078 448.145L107.104 450.194L96.0636 466.408C96.3661 467.226 96.5364 468.126 96.5627 469.046C96.5889 469.965 96.4704 470.882 96.2155 471.731C95.9607 472.579 95.5756 473.34 95.0874 473.958C94.5993 474.577 94.0199 475.038 93.3902 475.311L93.3902 475.311Z" fill="#A0616A"/>
<path d="M156.283 544.441L161.999 544.316L161.312 571.517H156.284L156.283 544.441Z" fill="#A0616A"/>
<path d="M155.002 569.225L164.903 569.224H164.904C166.577 569.225 168.182 570.153 169.365 571.805C170.549 573.457 171.213 575.698 171.214 578.034V578.32L155.002 578.321L155.002 569.225Z" fill="#2F2E41"/>
<path d="M118.437 537.227L124.681 542.824L112.191 563.803L107.96 560.011L118.437 537.227Z" fill="#A0616A"/>
<path d="M107.768 557.115L116.1 564.584L116.1 564.584C117.508 565.846 118.5 567.838 118.856 570.121C119.212 572.404 118.905 574.791 118.001 576.757L117.89 576.998L104.248 564.77L107.768 557.115Z" fill="#2F2E41"/>
<path d="M116.212 454.168C116.212 454.168 130.086 389.833 134.545 388.963C139.004 388.094 146.188 405.471 146.188 405.471C155.502 422.063 165.106 475.808 165.106 475.808C165.106 475.808 149.095 477.207 137.391 485.901C125.687 494.595 111.875 485.461 111.875 485.461L116.212 454.168Z" fill="#3F3D56"/>
<path opacity="0.1" d="M116.212 454.168C116.212 454.168 130.086 389.833 134.545 388.963C139.004 388.094 144.363 405.647 144.363 405.647C149.004 432.431 165.106 475.808 165.106 475.808C165.106 475.808 149.095 477.207 137.391 485.901C125.687 494.595 111.875 485.461 111.875 485.461L116.212 454.168Z" fill="black"/>
<path d="M127.595 434.919V467.247L124.87 514.077L111.256 549.5L117.753 555.98L136.318 522.284L143.661 488.827L155.192 562.892L163.856 562.028L157.839 459.339L146.421 430.434L127.595 434.919Z" fill="#2F2E41"/>
<path d="M141.583 403.651C145.915 409.699 141.893 416.178 141.893 416.178L146.843 431.73L127.35 439.074L120.538 396.575L125.179 389.664C134.462 389.232 134.467 388.963 134.467 388.963C136.093 391.185 141.583 403.651 141.583 403.651Z" fill="#CCCCCC"/>
<path d="M119.645 392.283C118.034 393.938 116.904 396.348 116.462 399.072C116.02 401.796 116.296 404.651 117.239 407.113C119.472 413.065 121.875 422.285 120.636 432.406C118.394 450.724 111.209 464.64 107.207 469.11C105.813 470.666 105.765 472.932 105.969 474.558C106.541 479.103 109.697 484.26 111.88 485.294C112.027 485.362 112.181 485.396 112.336 485.394C115.882 485.396 124.606 469.626 134.63 438.821C140.874 419.636 136.342 404.253 131.442 394.727C130.799 393.481 129.985 392.425 129.047 391.621C128.109 390.817 127.067 390.28 125.98 390.043C124.892 389.805 123.782 389.871 122.714 390.237C121.645 390.602 120.639 391.26 119.753 392.173L119.645 392.283Z" fill="#3F3D56"/>
<path d="M128.892 410.831L100.741 462.402L93.3148 458.082L119.924 395.443L128.892 410.831Z" fill="#3F3D56"/>
<path d="M137.243 383.364H117.88C117.482 383.363 117.1 383.142 116.818 382.749C116.537 382.356 116.378 381.823 116.378 381.267V369.614C116.377 367.563 116.666 365.532 117.227 363.636C117.789 361.741 118.613 360.019 119.651 358.568C120.69 357.117 121.923 355.966 123.28 355.181C124.637 354.396 126.092 353.992 127.561 353.992C129.031 353.992 130.485 354.396 131.843 355.181C133.2 355.966 134.433 357.117 135.471 358.568C136.51 360.019 137.334 361.741 137.895 363.636C138.457 365.532 138.746 367.563 138.745 369.614V381.267C138.745 381.823 138.586 382.356 138.304 382.749C138.023 383.142 137.641 383.364 137.243 383.364Z" fill="#2F2E41"/>
<path d="M137.054 377.136C139.226 371.588 137.766 364.633 133.792 361.6C129.819 358.567 124.837 360.606 122.665 366.154C120.493 371.702 121.953 378.657 125.927 381.69C129.9 384.723 134.882 382.684 137.054 377.136Z" fill="#A0616A"/>
<path d="M141.391 370.779H129.551L129.429 368.406L128.822 370.779H126.999L126.759 366.076L125.556 370.779H122.028V370.546C122.031 367.272 122.964 364.132 124.622 361.817C126.281 359.501 128.529 358.199 130.875 358.195H132.544C134.889 358.199 137.138 359.501 138.797 361.817C140.455 364.132 141.388 367.272 141.391 370.546V370.779Z" fill="#2F2E41"/>
<path d="M129.454 385.539C129.365 385.539 129.276 385.528 129.188 385.506L120.518 383.371V363.366H130.062L129.826 363.751C126.538 369.103 129.015 377.783 130.784 382.48C130.914 382.824 130.973 383.213 130.952 383.601C130.931 383.989 130.832 384.361 130.666 384.674C130.528 384.942 130.345 385.16 130.135 385.31C129.924 385.461 129.691 385.539 129.454 385.539Z" fill="#2F2E41"/>
<path d="M1 578.568C1 578.453 1.0326 578.344 1.09062 578.263C1.14865 578.182 1.22735 578.136 1.30941 578.136H263.691C263.773 578.136 263.851 578.182 263.909 578.263C263.967 578.344 264 578.453 264 578.568C264 578.683 263.967 578.792 263.909 578.873C263.851 578.955 263.773 579 263.691 579H1.30941C1.22735 579 1.14865 578.955 1.09062 578.873C1.0326 578.792 1 578.683 1 578.568Z" fill="#CBCBCB"/>
</g>
<path d="M660.535 627H338.465C336.221 626.998 334.069 626.296 332.482 625.049C330.895 623.802 330.003 622.111 330 620.348V517.652C330.003 515.889 330.895 514.198 332.482 512.951C334.069 511.704 336.221 511.002 338.465 511H660.535C662.779 511.002 664.931 511.704 666.518 512.951C668.105 514.198 668.997 515.889 669 517.652V620.348C668.997 622.111 668.105 623.802 666.518 625.049C664.931 626.296 662.779 626.998 660.535 627Z" fill="#1FA0E9"/>
<path d="M382.062 571.172C381.641 574.781 380.305 577.57 378.055 579.539C375.82 581.492 372.844 582.469 369.125 582.469C365.094 582.469 361.859 581.023 359.422 578.133C357 575.242 355.789 571.375 355.789 566.531V563.25C355.789 560.078 356.352 557.289 357.477 554.883C358.617 552.477 360.227 550.633 362.305 549.352C364.383 548.055 366.789 547.406 369.523 547.406C373.148 547.406 376.055 548.422 378.242 550.453C380.43 552.469 381.703 555.266 382.062 558.844H377.539C377.148 556.125 376.297 554.156 374.984 552.938C373.688 551.719 371.867 551.109 369.523 551.109C366.648 551.109 364.391 552.172 362.75 554.297C361.125 556.422 360.312 559.445 360.312 563.367V566.672C360.312 570.375 361.086 573.32 362.633 575.508C364.18 577.695 366.344 578.789 369.125 578.789C371.625 578.789 373.539 578.227 374.867 577.102C376.211 575.961 377.102 573.984 377.539 571.172H382.062ZM392.75 578.32H408.922V582H388.227V547.875H392.75V578.32ZM418.883 582H414.383V547.875H418.883V582ZM453.195 566.039C453.195 569.336 452.672 572.18 451.625 574.57C450.578 576.945 449.109 578.805 447.219 580.148L453.312 584.93L450.242 587.766L443.047 582.047C441.922 582.328 440.734 582.469 439.484 582.469C436.797 582.469 434.414 581.812 432.336 580.5C430.258 579.172 428.641 577.289 427.484 574.852C426.344 572.398 425.758 569.562 425.727 566.344V563.883C425.727 560.602 426.297 557.703 427.438 555.188C428.578 552.672 430.188 550.75 432.266 549.422C434.359 548.078 436.75 547.406 439.438 547.406C442.188 547.406 444.602 548.07 446.68 549.398C448.773 550.727 450.383 552.641 451.508 555.141C452.633 557.625 453.195 560.531 453.195 563.859V566.039ZM448.695 563.836C448.695 559.82 447.891 556.727 446.281 554.555C444.688 552.367 442.406 551.273 439.438 551.273C436.609 551.273 434.375 552.359 432.734 554.531C431.109 556.688 430.273 559.688 430.227 563.531V566.039C430.227 569.945 431.039 573.023 432.664 575.273C434.305 577.523 436.578 578.648 439.484 578.648C442.391 578.648 444.641 577.594 446.234 575.484C447.828 573.359 448.648 570.32 448.695 566.367V563.836ZM484.156 547.875V571.078C484.141 574.297 483.125 576.93 481.109 578.977C479.109 581.023 476.391 582.172 472.953 582.422L471.758 582.469C468.023 582.469 465.047 581.461 462.828 579.445C460.609 577.43 459.484 574.656 459.453 571.125V547.875H463.906V570.984C463.906 573.453 464.586 575.375 465.945 576.75C467.305 578.109 469.242 578.789 471.758 578.789C474.305 578.789 476.25 578.109 477.594 576.75C478.953 575.391 479.633 573.477 479.633 571.008V547.875H484.156ZM510.547 566.227H495.758V578.32H512.938V582H491.258V547.875H512.703V551.578H495.758V562.547H510.547V566.227ZM549.289 573.094H534.992L531.781 582H527.141L540.172 547.875H544.109L557.164 582H552.547L549.289 573.094ZM536.352 569.391H547.953L542.141 553.43L536.352 569.391ZM587.539 566.039C587.539 569.336 587.016 572.18 585.969 574.57C584.922 576.945 583.453 578.805 581.562 580.148L587.656 584.93L584.586 587.766L577.391 582.047C576.266 582.328 575.078 582.469 573.828 582.469C571.141 582.469 568.758 581.812 566.68 580.5C564.602 579.172 562.984 577.289 561.828 574.852C560.688 572.398 560.102 569.562 560.07 566.344V563.883C560.07 560.602 560.641 557.703 561.781 555.188C562.922 552.672 564.531 550.75 566.609 549.422C568.703 548.078 571.094 547.406 573.781 547.406C576.531 547.406 578.945 548.07 581.023 549.398C583.117 550.727 584.727 552.641 585.852 555.141C586.977 557.625 587.539 560.531 587.539 563.859V566.039ZM583.039 563.836C583.039 559.82 582.234 556.727 580.625 554.555C579.031 552.367 576.75 551.273 573.781 551.273C570.953 551.273 568.719 552.359 567.078 554.531C565.453 556.688 564.617 559.688 564.57 563.531V566.039C564.57 569.945 565.383 573.023 567.008 575.273C568.648 577.523 570.922 578.648 573.828 578.648C576.734 578.648 578.984 577.594 580.578 575.484C582.172 573.359 582.992 570.32 583.039 566.367V563.836ZM618.5 547.875V571.078C618.484 574.297 617.469 576.93 615.453 578.977C613.453 581.023 610.734 582.172 607.297 582.422L606.102 582.469C602.367 582.469 599.391 581.461 597.172 579.445C594.953 577.43 593.828 574.656 593.797 571.125V547.875H598.25V570.984C598.25 573.453 598.93 575.375 600.289 576.75C601.648 578.109 603.586 578.789 606.102 578.789C608.648 578.789 610.594 578.109 611.938 576.75C613.297 575.391 613.977 573.477 613.977 571.008V547.875H618.5ZM630.43 582H625.93V547.875H630.43V582Z" fill="white"/>
</g>
<defs>
<clipPath id="clip0_19:318">
<rect width="747" height="624" fill="white"/>
</clipPath>
<clipPath id="clip1_19:318">
<rect width="362" height="291" fill="white" transform="translate(71 16)"/>
</clipPath>
<clipPath id="clip2_19:318">
<rect width="263" height="225" fill="white" transform="translate(1 354)"/>
</clipPath>
</defs>
</svg>
